<svg id="Layer_1" data-name="Layer 1" xmlns="http://www.w3.org/2000/svg" xmlns:xlink="http://www.w3.org/1999/xlink" viewBox="0 0 1393.19 400.58"><defs><style>.cls-1{fill:url(#linear-gradient);}.cls-2{fill:#ed1c24;stroke:red;}.cls-10,.cls-11,.cls-2,.cls-3,.cls-5,.cls-9{stroke-miterlimit:10;}.cls-3{fill:none;}.cls-3,.cls-5,.cls-9{stroke:#fff;}.cls-3,.cls-5{stroke-width:100px;}.cls-4{fill:url(#linear-gradient-5);}.cls-5{fill:url(#linear-gradient-9);}.cls-6{fill:url(#linear-gradient-10);}.cls-11,.cls-7{fill:#f0f;}.cls-8{fill:#001118;}.cls-9{fill:#fff;}.cls-10{fill:aqua;stroke:aqua;}.cls-11{stroke:#f0f;}</style><linearGradient id="linear-gradient" x1="83.13" y1="251.34" x2="1003.82" y2="251.34" gradientUnits="userSpaceOnUse"><stop offset="0" stop-color="#ff7300"/><stop offset="0.09" stop-color="#f97c01"/><stop offset="0.25" stop-color="#ea9602"/><stop offset="0.29" stop-color="#e59e03"/><stop offset="0.87" stop-color="#e5c500"/><stop offset="0.99" stop-color="#bf6f00"/></linearGradient><linearGradient id="linear-gradient-5" x1="83.13" y1="251.34" x2="1003.82" y2="251.34" gradientUnits="userSpaceOnUse"><stop offset="0" stop-color="#f0f"/><stop offset="0.04" stop-color="#f609ff"/><stop offset="0.11" stop-color="#dc23ff"/><stop offset="0.19" stop-color="#b24dff"/><stop offset="0.3" stop-color="#7986ff"/><stop offset="0.41" stop-color="#30cfff"/><stop offset="0.48" stop-color="aqua"/><stop offset="0.86" stop-color="aqua"/><stop offset="0.92" stop-color="aqua"/></linearGradient><linearGradient id="linear-gradient-9" x1="64.71" y1="239.71" x2="64.71" y2="239.71" xlink:href="#linear-gradient-5"/><linearGradient id="linear-gradient-10" x1="50" y1="231.93" x2="175.44" y2="231.93" gradientUnits="userSpaceOnUse"><stop offset="0" stop-color="#f0f"/><stop offset="0.07" stop-color="#f608fe"/><stop offset="0.19" stop-color="#dc1cfa"/><stop offset="0.35" stop-color="#b33df5"/><stop offset="0.53" stop-color="#796bed"/><stop offset="0.73" stop-color="#30a5e3"/><stop offset="0.75" stop-color="#29abe2"/><stop offset="1" stop-color="aqua"/></linearGradient></defs><path class="cls-1" d="M83.13,108.6h54V394.08h-54Zm27.21,233.65h68.82q26.63,0,41.22-12.76T235,293.36v-84q0-23.35-14.59-36.12t-41.22-12.77H110.34V108.6H178q35.88,0,61.23,12t38.55,35q13.2,23,13.21,55.36v80.9q0,30.82-12.72,53.8t-38.16,35.73q-25.43,12.76-62.31,12.76H110.34Z" transform="translate(-33.13 -43.5)"/><path class="cls-1" d="M344.21,108.6h54V394.08h-54Zm19.52,0H536.28v51.83H363.73Zm0,117.81H514.59v51.83H363.73Zm0,115.84H536.28v51.83H363.73Z" transform="translate(-33.13 -43.5)"/><path class="cls-1" d="M585.58,108.6h54V394.08h-54Zm19.72,0H773.9v51.83H605.3Zm0,120.36H752.21v51.83H605.3Z" transform="translate(-33.13 -43.5)"/><path class="cls-1" d="M793.62,108.6h210.2v51.83H793.62ZM871.71,132h54V394.08h-54Z" transform="translate(-33.13 -43.5)"/><path class="cls-2" d="M83.13,108.6h54V394.08h-54Zm27.21,233.65h68.82q26.63,0,41.22-12.76T235,293.36v-84q0-23.35-14.59-36.12t-41.22-12.77H110.34V108.6H178q35.88,0,61.23,12t38.55,35q13.2,23,13.21,55.36v80.9q0,30.82-12.72,53.8t-38.16,35.73q-25.43,12.76-62.31,12.76H110.34Z" transform="translate(-33.13 -43.5)"/><path class="cls-2" d="M344.21,108.6h54V394.08h-54Zm19.52,0H536.28v51.83H363.73Zm0,117.81H514.59v51.83H363.73Zm0,115.84H536.28v51.83H363.73Z" transform="translate(-33.13 -43.5)"/><path class="cls-2" d="M585.58,108.6h54V394.08h-54Zm19.72,0H773.9v51.83H605.3Zm0,120.36H752.21v51.83H605.3Z" transform="translate(-33.13 -43.5)"/><path class="cls-2" d="M793.62,108.6h210.2v51.83H793.62ZM871.71,132h54V394.08h-54Z" transform="translate(-33.13 -43.5)"/><path class="cls-3" d="M83.13,108.6h54V394.08h-54Zm27.21,233.65h68.82q26.63,0,41.22-12.76T235,293.36v-84q0-23.35-14.59-36.12t-41.22-12.77H110.34V108.6H178q35.88,0,61.23,12t38.55,35q13.2,23,13.21,55.36v80.9q0,30.82-12.72,53.8t-38.16,35.73q-25.43,12.76-62.31,12.76H110.34Z" transform="translate(-33.13 -43.5)"/><path class="cls-3" d="M344.21,108.6h54V394.08h-54Zm19.52,0H536.28v51.83H363.73Zm0,117.81H514.59v51.83H363.73Zm0,115.84H536.28v51.83H363.73Z" transform="translate(-33.13 -43.5)"/><path class="cls-3" d="M585.58,108.6h54V394.08h-54Zm19.72,0H773.9v51.83H605.3Zm0,120.36H752.21v51.83H605.3Z" transform="translate(-33.13 -43.5)"/><path class="cls-3" d="M793.62,108.6h210.2v51.83H793.62ZM871.71,132h54V394.08h-54Z" transform="translate(-33.13 -43.5)"/><path class="cls-4" d="M83.13,108.6h54V394.08h-54Zm27.21,233.65h68.82q26.63,0,41.22-12.76T235,293.36v-84q0-23.35-14.59-36.12t-41.22-12.77H110.34V108.6H178q35.88,0,61.23,12t38.55,35q13.2,23,13.21,55.36v80.9q0,30.82-12.72,53.8t-38.16,35.73q-25.43,12.76-62.31,12.76H110.34Z" transform="translate(-33.13 -43.5)"/><path class="cls-4" d="M344.21,108.6h54V394.08h-54Zm19.52,0H536.28v51.83H363.73Zm0,117.81H514.59v51.83H363.73Zm0,115.84H536.28v51.83H363.73Z" transform="translate(-33.13 -43.5)"/><path class="cls-4" d="M585.58,108.6h54V394.08h-54Zm19.72,0H773.9v51.83H605.3Zm0,120.36H752.21v51.83H605.3Z" transform="translate(-33.13 -43.5)"/><path class="cls-4" d="M793.62,108.6h210.2v51.83H793.62ZM871.71,132h54V394.08h-54Z" transform="translate(-33.13 -43.5)"/><path class="cls-5" d="M64.71,239.71" transform="translate(-33.13 -43.5)"/><polygon class="cls-6" points="50 312.07 50 151.79 175.44 231.93 50 312.07"/><polygon class="cls-7" points="50 151.79 145.87 231.93 50 312.07 50 151.79"/><path d="M1158.2,384.56a82.89,82.89,0,0,1-35.54-36.32q-12.18-23.87-12.17-57.43V108.6h53.8V292.18q0,24.54,13.15,38.09t37.11,13.55q24.15,0,37.4-13.55t13.26-38.09V108.6H1319V290.81q0,33.57-12.27,57.43A83.31,83.31,0,0,1,1271,384.56Q1247.54,397,1214.55,397T1158.2,384.56Z" transform="translate(-33.13 -43.5)"/><path d="M1425.81,394.08h-55.76V108.6h55.76Z" transform="translate(-33.13 -43.5)"/><path class="cls-8" d="M1158.2,384.56a82.89,82.89,0,0,1-35.54-36.32q-12.18-23.87-12.17-57.43V108.6h53.8V292.18q0,24.54,13.15,38.09t37.11,13.55q24.15,0,37.4-13.55t13.26-38.09V108.6H1319V290.81q0,33.57-12.27,57.43A83.31,83.31,0,0,1,1271,384.56Q1247.54,397,1214.55,397T1158.2,384.56Z" transform="translate(-33.13 -43.5)"/><path class="cls-8" d="M1425.81,394.08h-55.76V108.6h55.76Z" transform="translate(-33.13 -43.5)"/><polygon class="cls-9" points="79.59 231.93 38.44 202.64 38.44 266.93 79.59 231.93"/><rect class="cls-10" x="1335.59" y="0.5" width="57.1" height="57.1" rx="15.12"/><rect class="cls-11" x="1335.59" y="65.1" width="57.1" height="285.48"/></svg>